<svg xmlns="http://www.w3.org/2000/svg" width="1000" height="1000" id="empty" style=""><g id="icon"><path fill="#0f3877" d="M409.36824759119713 484.4668871199471L336.76824759119717 484.4668871199471C332.16824759119714 484.4668871199471 328.46824759119716 488.1668871199471 328.46824759119716 492.76688711994706C328.46824759119716 497.3668871199471 332.16824759119714 501.06688711994707 336.76824759119717 501.06688711994707L409.36824759119713 501.06688711994707C413.96824759119716 501.06688711994707 417.66824759119714 497.3668871199471 417.66824759119714 492.76688711994706C417.5682475911972 488.1668871199471 413.86824759119713 484.4668871199471 409.36824759119713 484.4668871199471Z " transform="matrix(1.6305615052174505,0,0,1.6305613094421867,-45.77876431662641,-26.861910820076957)"></path><path fill="#0f3877" d="M398.0682475911972 511.26688711994706L347.96824759119716 511.26688711994706C343.86824759119713 511.26688711994706 340.5682475911972 514.5668871199471 340.5682475911972 518.6668871199471C340.5682475911972 522.7668871199471 343.86824759119713 526.0668871199471 347.96824759119716 526.0668871199471L349.46824759119716 526.0668871199471C349.5682475911972 526.1668871199471 349.66824759119714 526.366887119947 349.76824759119717 526.4668871199472L354.5682475911972 533.1668871199471C356.36824759119713 535.6668871199471 360.46824759119716 537.7668871199471 363.5682475911972 537.7668871199471L382.5682475911972 537.7668871199471C385.66824759119714 537.7668871199471 389.76824759119717 535.6668871199471 391.5682475911972 533.1668871199471L396.36824759119713 526.4668871199472C396.46824759119716 526.366887119947 396.5682475911972 526.1668871199471 396.66824759119714 526.0668871199471L398.16824759119714 526.0668871199471C402.26824759119717 526.0668871199471 405.5682475911972 522.7668871199471 405.5682475911972 518.6668871199471C405.46824759119716 514.5668871199471 402.16824759119714 511.26688711994706 398.0682475911972 511.26688711994706Z " transform="matrix(1.6305615052174505,0,0,1.6305613094421867,-45.77876431662641,-26.861910820076957)"></path><path fill="#0f3877" d="M415.76824759119717 456.8668871199471L330.26824759119717 456.8668871199471C325.66824759119714 456.8668871199471 321.96824759119716 460.56688711994707 321.96824759119716 465.1668871199471C321.96824759119716 469.76688711994706 325.66824759119714 473.4668871199471 330.26824759119717 473.4668871199471L415.76824759119717 473.4668871199471C420.36824759119713 473.4668871199471 424.0682475911972 469.76688711994706 424.0682475911972 465.1668871199471C424.0682475911972 460.56688711994707 420.36824759119713 456.8668871199471 415.76824759119717 456.8668871199471Z " transform="matrix(1.6305615052174505,0,0,1.6305613094421867,-45.77876431662641,-26.861910820076957)"></path><path fill="#0f3877" d="M247.96824759119718 186.06688711994707L289.1682475911972 186.06688711994707L289.1682475911972 227.26688711994709L247.96824759119718 227.26688711994709Z " transform="matrix(1.6305615052174505,0,0,1.6305613094421867,-45.77876431662641,-26.861910820076957)"></path><path fill="#0f3877" d="M183.1682475911972 172.1668871199471L215.6682475911972 172.1668871199471L215.6682475911972 204.6668871199471L183.1682475911972 204.6668871199471Z " transform="matrix(1.6305615052174505,0,0,1.6305613094421867,-45.77876431662641,-26.861910820076957)"></path><path fill="#0f3877" d="M175.06824759119718 124.3668871199471L191.1682475911972 124.3668871199471L191.1682475911972 140.4668871199471L175.06824759119718 140.4668871199471Z " transform="matrix(1.6305615052174505,0,0,1.6305613094421867,-45.77876431662641,-26.861910820076957)"></path><path fill="#0f3877" d="M232.16824759119717 108.4668871199471L256.1682475911972 108.4668871199471L256.1682475911972 132.4668871199471L232.16824759119717 132.4668871199471Z " transform="matrix(1.6305615052174505,0,0,1.6305613094421867,-45.77876431662641,-26.861910820076957)"></path><path fill="#0f3877" d="M405.26824759119717 237.96688711994707C405.26824759119717 239.89988374435708 403.7012442156072 241.46688711994707 401.76824759119717 241.46688711994707C399.83525096678716 241.46688711994707 398.26824759119717 239.89988374435708 398.26824759119717 237.96688711994707C398.26824759119717 236.0338904955371 399.83525096678716 234.46688711994707 401.76824759119717 234.46688711994707C403.7012442156072 234.46688711994707 405.26824759119717 236.0338904955371 405.26824759119717 237.96688711994707Z " transform="matrix(1.6305615052174505,0,0,1.6305613094421867,-45.77876431662641,-26.861910820076957)"></path><path fill="#0f3877" d="M398.66824759119714 204.36688711994708C397.26824759119717 205.76688711994709 397.26824759119717 207.96688711994707 398.66824759119714 209.36688711994708C400.0682475911972 210.76688711994709 402.26824759119717 210.76688711994709 403.66824759119714 209.36688711994708C405.0682475911972 207.96688711994707 405.0682475911972 205.76688711994709 403.66824759119714 204.36688711994708C402.26824759119717 202.96688711994707 400.0682475911972 202.96688711994707 398.66824759119714 204.36688711994708Z " transform="matrix(1.6305615052174505,0,0,1.6305613094421867,-45.77876431662641,-26.861910820076957)"></path><path fill="#0f3877" d="M363.66824759119714 226.96688711994707C363.66824759119714 228.89988374435708 362.10124421560715 230.46688711994707 360.16824759119714 230.46688711994707C358.23525096678713 230.46688711994707 356.66824759119714 228.89988374435708 356.66824759119714 226.96688711994707C356.66824759119714 225.0338904955371 358.23525096678713 223.46688711994707 360.16824759119714 223.46688711994707C362.10124421560715 223.46688711994707 363.66824759119714 225.0338904955371 363.66824759119714 226.96688711994707Z " transform="matrix(1.6305615052174505,0,0,1.6305613094421867,-45.77876431662641,-26.861910820076957)"></path><path fill="#0f3877" d="M328.7682475911972 323.3668871199471C324.96824759119716 324.9668871199471 320.5682475911972 324.1668871199471 317.5682475911972 321.1668871199471C313.5682475911972 317.1668871199471 313.5682475911972 310.7668871199471 317.5682475911972 306.7668871199471C321.5682475911972 302.7668871199471 327.96824759119716 302.7668871199471 331.96824759119716 306.7668871199471C334.96824759119716 309.7668871199471 335.7682475911972 314.1668871199471 334.1682475911972 317.96688711994705L432.6682475911972 416.56688711994707C437.6682475911972 403.9668871199471 443.46824759119716 393.06688711994707 449.5682475911972 383.06688711994707L394.1682475911972 327.56688711994707L378.86824759119713 342.8668871199471L359.7682475911972 323.76688711994706C355.96824759119716 325.3668871199471 351.46824759119716 324.56688711994707 348.5682475911972 321.56688711994707C344.5682475911972 317.56688711994707 344.5682475911972 311.1668871199471 348.5682475911972 307.1668871199471C352.5682475911972 303.1668871199471 358.96824759119716 303.1668871199471 362.96824759119716 307.1668871199471C365.96824759119716 310.1668871199471 366.7682475911972 314.56688711994707 365.1682475911972 318.3668871199471L378.86824759119713 332.06688711994707L394.1682475911972 316.7668871199471L451.0682475911972 373.6668871199471L451.0682475911972 373.6668871199471L453.7682475911972 376.3668871199471C456.36824759119713 372.26688711994706 458.96824759119716 368.26688711994706 461.5682475911972 364.3668871199471L379.96824759119716 282.8668871199471C376.1682475911972 284.46688711994705 371.7682475911972 283.6668871199471 368.7682475911972 280.6668871199471C364.7682475911972 276.6668871199471 364.7682475911972 270.2668871199471 368.7682475911972 266.2668871199471C372.7682475911972 262.2668871199471 379.1682475911972 262.2668871199471 383.1682475911972 266.2668871199471C386.1682475911972 269.2668871199471 386.96824759119716 273.6668871199471 385.36824759119713 277.46688711994705L390.2682475911972 282.3668871199471L400.1682475911972 272.46688711994705L364.1682475911972 236.36688711994708C360.36824759119713 237.96688711994707 355.96824759119716 237.1668871199471 352.96824759119716 234.1668871199471C348.96824759119716 230.1668871199471 348.96824759119716 223.76688711994709 352.96824759119716 219.76688711994709C356.96824759119716 215.76688711994709 363.36824759119713 215.76688711994709 367.36824759119713 219.76688711994709C370.36824759119713 222.76688711994709 371.1682475911972 227.1668871199471 369.5682475911972 230.96688711994707L411.0682475911972 272.46688711994705L395.7682475911972 287.7668871199471L465.96824759119716 357.9668871199471C468.6682475911972 353.9668871199471 471.2682475911972 349.9668871199471 473.7682475911972 345.9668871199471L413.96824759119716 286.1668871199471L429.2682475911972 270.8668871199471L405.86824759119713 247.46688711994707C402.0682475911972 249.06688711994707 397.6682475911972 248.26688711994709 394.6682475911972 245.26688711994709C390.6682475911972 241.26688711994709 390.6682475911972 234.86688711994708 394.6682475911972 230.86688711994708C398.6682475911972 226.86688711994708 405.0682475911972 226.86688711994708 409.0682475911972 230.86688711994708C412.0682475911972 233.86688711994708 412.86824759119713 238.26688711994709 411.2682475911972 242.06688711994707L440.0682475911972 270.8668871199471L424.7682475911972 286.1668871199471L477.7682475911972 339.1668871199471C480.2682475911972 334.9668871199471 482.5682475911972 330.6668871199471 484.5682475911972 326.1668871199471L441.5682475911972 283.1668871199471L456.86824759119713 267.8668871199471L405.1682475911972 216.1668871199471C401.36824759119713 217.76688711994709 396.96824759119716 216.96688711994707 393.96824759119716 213.96688711994707C389.96824759119716 209.96688711994707 389.96824759119716 203.56688711994707 393.96824759119716 199.56688711994707C397.96824759119716 195.56688711994707 404.36824759119713 195.56688711994707 408.36824759119713 199.56688711994707C411.36824759119713 202.56688711994707 412.1682475911972 206.96688711994707 410.5682475911972 210.76688711994709L467.6682475911972 267.8668871199471L452.36824759119713 283.1668871199471L487.7682475911972 318.56688711994707C491.86824759119713 307.7668871199471 494.36824759119713 296.06688711994707 494.36824759119713 282.3668871199471C494.36824759119713 209.6668871199471 436.2682475911972 161.06688711994707 373.0682475911972 161.06688711994707C347.96824759119716 161.06688711994707 323.7682475911972 168.76688711994709 303.5682475911972 182.46688711994707L303.5682475911972 241.76688711994709L258.2682475911972 241.76688711994709C253.96824759119718 254.1668871199471 251.66824759119717 267.8668871199471 251.66824759119717 282.3668871199471C251.66824759119717 339.4668871199471 295.3682475911972 362.76688711994706 316.6682475911972 425.3668871199471C318.46824759119716 430.76688711994706 320.1682475911972 436.4668871199471 321.6682475911972 442.56688711994707C322.0682475911972 444.1668871199471 323.6682475911972 445.4668871199471 325.2682475911972 445.4668871199471L420.86824759119713 445.4668871199471C422.46824759119716 445.4668871199471 424.0682475911972 444.1668871199471 424.46824759119716 442.56688711994707C425.96824759119716 436.1668871199471 427.7682475911972 430.1668871199471 429.7682475911972 424.4668871199471L328.7682475911972 323.3668871199471Z " transform="matrix(1.6305615052174505,0,0,1.6305613094421867,-45.77876431662641,-26.861910820076957)"></path><path fill="#0f3877" d="M322.36824759119713 311.46688711994705C320.96824759119716 312.8668871199471 320.96824759119716 315.06688711994707 322.36824759119713 316.46688711994705C323.76824759119717 317.8668871199471 325.96824759119716 317.8668871199471 327.36824759119713 316.46688711994705C328.76824759119717 315.06688711994707 328.76824759119717 312.8668871199471 327.36824759119713 311.46688711994705C325.96824759119716 310.1668871199471 323.66824759119714 310.1668871199471 322.36824759119713 311.46688711994705Z " transform="matrix(1.6305615052174505,0,0,1.6305613094421867,-45.77876431662641,-26.861910820076957)"></path><path fill="#0f3877" d="M353.26824759119717 311.8668871199471C351.86824759119713 313.2668871199471 351.86824759119713 315.46688711994705 353.26824759119717 316.8668871199471C354.66824759119714 318.2668871199471 356.86824759119713 318.2668871199471 358.26824759119717 316.8668871199471C359.66824759119714 315.46688711994705 359.66824759119714 313.2668871199471 358.26824759119717 311.8668871199471C356.86824759119713 310.46688711994705 354.66824759119714 310.46688711994705 353.26824759119717 311.8668871199471Z " transform="matrix(1.6305615052174505,0,0,1.6305613094421867,-45.77876431662641,-26.861910820076957)"></path><path fill="#0f3877" d="M379.5682475911972 273.46688711994705C379.5682475911972 275.3998837443571 378.00124421560713 276.96688711994705 376.0682475911972 276.96688711994705C374.13525096678717 276.96688711994705 372.5682475911972 275.3998837443571 372.5682475911972 273.46688711994705C372.5682475911972 271.5338904955371 374.13525096678717 269.96688711994705 376.0682475911972 269.96688711994705C378.00124421560713 269.96688711994705 379.5682475911972 271.5338904955371 379.5682475911972 273.46688711994705Z " transform="matrix(1.6305615052174505,0,0,1.6305613094421867,-45.77876431662641,-26.861910820076957)"></path><g transform="matrix(3.261123010434901,0,0,3.2611226188843734,-45.77876431662641,-26.861910820076957)"></g></g></svg>